<svg width="20" height="20" viewBox="0 0 20 20" fill="none" xmlns="http://www.w3.org/2000/svg">
  <path d="M15 7.5H14.1667V5.83333C14.1667 3.53215 12.3012 1.66667 10 1.66667C7.69881 1.66667 5.83333 3.53215 5.83333 5.83333V7.5H5C4.07953 7.5 3.33333 8.24619 3.33333 9.16667V16.6667C3.33333 17.5871 4.07953 18.3333 5 18.3333H15C15.9205 18.3333 16.6667 17.5871 16.6667 16.6667V9.16667C16.6667 8.24619 15.9205 7.5 15 7.5ZM7.5 5.83333C7.5 4.45262 8.61929 3.33333 10 3.33333C11.3807 3.33333 12.5 4.45262 12.5 5.83333V7.5H7.5V5.83333ZM15 16.6667H5V9.16667H15V16.6667ZM10 13.3333C10.9205 13.3333 11.6667 12.5871 11.6667 11.6667C11.6667 10.7462 10.9205 10 10 10C9.07953 10 8.33333 10.7462 8.33333 11.6667C8.33333 12.5871 9.07953 13.3333 10 13.3333Z" fill="currentColor"/>
</svg>