<svg width="20" height="20" viewBox="0 0 20 20" fill="none" xmlns="http://www.w3.org/2000/svg">
  <path d="M18.1712 8.36783H17.9999V8.33325H9.99992V11.6666H14.7091C14.0224 13.6069 12.1762 14.9999 9.99992 14.9999C7.23859 14.9999 4.99992 12.7612 4.99992 9.99992C4.99992 7.23859 7.23859 4.99992 9.99992 4.99992C11.2749 4.99992 12.4341 5.48075 13.3174 6.26625L15.6741 3.90959C14.1857 2.52192 12.1949 1.66659 9.99992 1.66659C5.39742 1.66659 1.66659 5.39742 1.66659 9.99992C1.66659 14.6024 5.39742 18.3333 9.99992 18.3333C14.6024 18.3333 18.3333 14.6024 18.3333 9.99992C18.3333 9.44125 18.2757 8.89575 18.1712 8.36783Z" fill="#FFC107"/>
  <path d="M2.62744 6.12125L5.36536 8.12925C6.10619 6.29492 7.90036 4.99992 9.99994 4.99992C11.2749 4.99992 12.4341 5.48075 13.3174 6.26625L15.6741 3.90959C14.1857 2.52192 12.1949 1.66659 9.99994 1.66659C6.79911 1.66659 4.02327 3.47359 2.62744 6.12125Z" fill="#FF3D00"/>
  <path d="M10 18.3333C12.1525 18.3333 14.1084 17.5096 15.5871 16.17L13.0079 13.9875C12.1431 14.6452 11.0865 15.0009 10 15C7.83254 15 5.99212 13.6179 5.29879 11.6892L2.58129 13.7829C3.96046 16.4817 6.76129 18.3333 10 18.3333Z" fill="#4CAF50"/>
  <path d="M18.1712 8.36792H18V8.33334H10V11.6667H14.7092C14.3809 12.5902 13.7409 13.3976 12.8867 13.9876L12.8859 13.9869L15.5642 16.1692C15.4046 16.3155 18.3333 14.1667 18.3333 10C18.3333 9.44134 18.2757 8.89584 18.1712 8.36792Z" fill="#1976D2"/>
</svg>