<svg width="20" height="20" viewBox="0 0 20 20" fill="none" xmlns="http://www.w3.org/2000/svg">
  <path d="M8.33333 11.6667C8.69167 12.1083 9.1475 12.4608 9.66667 12.6917L10.8333 11.525C10.5583 11.4167 10.3083 11.2583 10.0917 11.05C9.88333 10.8417 9.725 10.5917 9.61667 10.3167L8.33333 11.6667Z" fill="#6B7280"/>
  <path d="M11.6667 8.33333C11.3083 7.89167 10.8525 7.53917 10.3333 7.30833L9.16667 8.475C9.44167 8.58333 9.69167 8.74167 9.90833 8.95C10.1167 9.15833 10.275 9.40833 10.3833 9.68333L11.6667 8.33333Z" fill="#6B7280"/>
  <path d="M6.66667 7.5C6.66667 6.58333 7.41667 5.83333 8.33333 5.83333H9.16667V4.16667H8.33333C6.49167 4.16667 5 5.65833 5 7.5C5 9.34167 6.49167 10.8333 8.33333 10.8333H9.16667V9.16667H8.33333C7.41667 9.16667 6.66667 8.41667 6.66667 7.5Z" fill="#6B7280"/>
  <path d="M13.3333 12.5C13.3333 13.4167 12.5833 14.1667 11.6667 14.1667H10.8333V15.8333H11.6667C13.5083 15.8333 15 14.3417 15 12.5C15 10.6583 13.5083 9.16667 11.6667 9.16667H10.8333V10.8333H11.6667C12.5833 10.8333 13.3333 11.5833 13.3333 12.5Z" fill="#6B7280"/>
  <path d="M11.6667 5.83333H8.33333C7.41667 5.83333 6.66667 6.58333 6.66667 7.5C6.66667 8.41667 7.41667 9.16667 8.33333 9.16667H11.6667C12.5833 9.16667 13.3333 8.41667 13.3333 7.5C13.3333 6.58333 12.5833 5.83333 11.6667 5.83333ZM11.6667 7.5H8.33333V7.49167H11.6667V7.5Z" fill="#6B7280"/>
  <path d="M11.6667 10.8333H8.33333C7.41667 10.8333 6.66667 11.5833 6.66667 12.5C6.66667 13.4167 7.41667 14.1667 8.33333 14.1667H11.6667C12.5833 14.1667 13.3333 13.4167 13.3333 12.5C13.3333 11.5833 12.5833 10.8333 11.6667 10.8333ZM11.6667 12.5H8.33333V12.5083H11.6667V12.5Z" fill="#6B7280"/>
</svg>